PathFileType	4	(X/Y/Z)	c:/Users/goper/Files/vsCode/490R/osim_files/A01/A01_PWS_06.trc
DataRate	CameraRate	NumFrames	NumMarkers	Units                	OrigDataRate	OrigDataStartFrame	OrigNumFrames
120.00	120.00	4	36	mm	120.0	710	1135
                Frame#	Time	Mobility_markerset:LPSIS			Mobility_markerset:LASIS			Mobility_markerset:LTH1			Mobility_markerset:LTH2			Mobility_markerset:LTH3			Mobility_markerset:LTH4			Mobility_markerset:LLFE			Mobility_markerset:LMFE			Mobility_markerset:LSH1			Mobility_markerset:LSH2			Mobility_markerset:LSH3			Mobility_markerset:LSH4			Mobility_markerset:LLMAL			Mobility_markerset:LMMAL			Mobility_markerset:LCAL			Mobility_markerset:LMTP5			Mobility_markerset:LTOE			Mobility_markerset:LMTP1			Mobility_markerset:RPSIS			Mobility_markerset:RASIS			Mobility_markerset:RTH1			Mobility_markerset:RTH2			Mobility_markerset:RTH3			Mobility_markerset:RTH4			Mobility_markerset:RLFE			Mobility_markerset:RMFE			Mobility_markerset:RSH1			Mobility_markerset:RSH2			Mobility_markerset:RSH3			Mobility_markerset:RSH4			Mobility_markerset:RLMAL			Mobility_markerset:RMMAL			Mobility_markerset:RCAL			Mobility_markerset:RMTP1			Mobility_markerset:RTOE			Mobility_markerset:RMTP5		
		X1	Y1	Z1	X2	Y2	Z2	X3	Y3	Z3	X4	Y4	Z4	X5	Y5	Z5	X6	Y6	Z6	X7	Y7	Z7	X8	Y8	Z8	X9	Y9	Z9	X10	Y10	Z10	X11	Y11	Z11	X12	Y12	Z12	X13	Y13	Z13	X14	Y14	Z14	X15	Y15	Z15	X16	Y16	Z16	X17	Y17	Z17	X18	Y18	Z18	X19	Y19	Z19	X20	Y20	Z20	X21	Y21	Z21	X22	Y22	Z22	X23	Y23	Z23	X24	Y24	Z24	X25	Y25	Z25	X26	Y26	Z26	X27	Y27	Z27	X28	Y28	Z28	X29	Y29	Z29	X30	Y30	Z30	X31	Y31	Z31	X32	Y32	Z32	X33	Y33	Z33	X34	Y34	Z34	X35	Y35	Z35	X36	Y36	Z36

710	5.90833	-1524.56726	1022.54034	339.73627	-1769.43176	998.62152	408.14328	-1745.88318	680.08923	468.58841	-1766.70935	638.14703	457.67416	-1800.69189	703.06476	462.70102	-1812.89844	660.32312	448.75757	-1824.79602	539.07355	415.25754	-1829.15112	546.60284	276.94733	-1808.55957	371.93726	405.73563	-1815.65759	324.13998	409.37112	-1870.66125	374.76990	399.45633	-1867.57336	328.82248	401.46445	-1860.84094	86.33183	385.02411	-1846.74463	84.34101	306.86057	-1781.90100	51.54801	351.52072	-2006.76831	46.06845	394.43643	-2026.64880	71.71130	325.79749	-2009.28467	57.40353	293.76965	-1518.63770	1018.78320	235.90999	-1743.91614	954.21155	150.27345	-1546.30920	651.56421	92.26254	-1548.07385	607.85889	98.06895	-1608.70447	646.24878	89.71546	-1600.63721	604.11719	94.20544	-1558.45801	461.24988	132.71840	-1575.59875	470.31113	255.19431	-1353.77905	371.14120	128.87357	-1324.71252	337.08743	129.22278	-1396.52136	327.24695	124.54491	-1362.08240	298.50504	125.17675	-1217.87488	193.74292	157.54993	-1247.33081	188.68712	241.14255	-1162.08374	213.31129	208.19380	-1278.76208	52.09604	251.49472	-1312.04688	52.91972	206.33556	-1258.49194	50.99603	137.14688
711	5.91667	-1535.84131	1024.10022	340.08011	-1780.75671	1000.75793	409.36011	-1754.38953	680.91199	469.99393	-1774.76453	638.71588	458.91714	-1809.48828	703.37994	464.50092	-1821.33813	660.63141	450.39407	-1832.31494	539.13263	416.70517	-1836.81323	546.95203	278.35645	-1813.64575	372.16910	406.66895	-1819.97485	324.31219	410.17911	-1875.62744	374.20575	400.44128	-1871.97510	328.26300	402.34668	-1861.60205	86.00910	385.18994	-1847.64783	84.29511	307.11810	-1782.27100	51.85770	351.57980	-2007.07422	44.23898	394.50916	-2027.72986	69.90147	326.08694	-2009.92810	55.73865	293.98978	-1529.83081	1019.19617	236.28671	-1754.95715	956.06213	152.14217	-1562.66162	649.34900	92.23068	-1565.00671	605.75336	97.81968	-1625.04712	645.17938	89.70528	-1617.85437	602.91107	94.12650	-1578.70374	459.11777	131.73679	-1595.94019	468.24115	254.72169	-1371.19031	374.64987	129.32901	-1341.10779	341.39508	129.69968	-1412.29712	330.03857	124.28292	-1376.23145	302.89334	124.81190	-1231.09167	202.10794	158.29538	-1260.22656	195.34375	241.76106	-1177.18347	225.02721	209.02568	-1283.29224	55.91901	251.97510	-1316.23206	54.59159	206.36151	-1262.55615	56.67886	137.25331
712	5.92500	-1546.76758	1025.54773	340.43304	-1792.02844	1002.87915	410.48962	-1762.00342	681.70135	470.10205	-1782.33594	639.18341	460.10776	-1817.72424	703.53186	466.20123	-1829.30627	660.66132	451.99753	-1839.47473	539.16943	418.01178	-1844.02441	547.28265	279.59006	-1818.10925	372.70972	407.94135	-1824.03235	324.84406	410.50745	-1880.51868	373.68381	401.46201	-1876.21155	327.76981	403.14667	-1862.06982	85.86225	385.42017	-1848.32886	84.28470	307.30795	-1782.64075	52.20256	351.69803	-2007.35754	42.66323	394.56201	-2028.16467	68.42597	326.38409	-2010.43323	54.51613	294.14334	-1540.77881	1019.49292	236.69772	-1765.78308	957.99066	154.00735	-1579.29211	646.80011	92.10728	-1582.73096	603.10883	97.61884	-1641.81384	644.11780	89.58131	-1635.48572	601.61316	94.07209	-1599.46497	456.79074	131.13068	-1617.02820	465.87106	254.01936	-1389.18054	378.45074	129.82242	-1358.26855	346.01440	130.39952	-1428.83325	332.74808	124.20876	-1392.34021	306.52039	125.04758	-1245.47278	210.73430	159.18146	-1273.97620	202.12109	242.60147	-1193.61755	237.23013	210.00854	-1288.79541	60.87032	252.43875	-1321.36243	57.13496	206.47838	-1267.35986	63.20781	137.65852
713	5.93333	-1557.54810	1026.87830	340.76358	-1802.99084	1004.93109	411.67453	-1769.94458	682.07727	471.14960	-1789.51990	639.45758	461.32944	-1825.66479	703.86401	466.47409	-1836.61621	660.39740	453.55515	-1846.17749	539.16119	419.16998	-1851.40637	547.60962	281.01245	-1823.22070	372.86624	408.28571	-1828.12769	324.73865	411.69388	-1885.05115	373.13574	402.19446	-1880.19495	327.32285	403.84857	-1862.70618	85.53509	385.34802	-1848.89600	84.32748	307.46069	-1782.94067	52.57528	351.76205	-2007.65833	41.57667	394.53406	-2028.65442	67.04809	326.59692	-2010.90283	53.48701	294.30786	-1551.40991	1019.67078	237.11026	-1776.44263	959.89209	155.76886	-1595.98706	644.01837	91.83852	-1600.69287	600.49518	97.34075	-1659.03076	642.71979	89.92120	-1653.67175	600.33911	94.21049	-1620.54895	454.72910	130.63615	-1638.82397	463.46384	253.15323	-1407.79565	382.39240	130.49771	-1376.02063	350.84949	131.16891	-1446.13550	335.79492	124.37074	-1408.83130	310.43854	125.24825	-1260.66125	219.60370	160.30806	-1288.75134	209.19092	243.40764	-1211.25928	249.38051	211.32793	-1295.21521	66.23724	252.98349	-1326.68384	59.98782	206.86174	-1272.80054	70.72287	138.15416
